<svg xmlns="http://www.w3.org/2000/svg" width="800" height="420" viewBox="0 0 800 420"><style>text{font-family:Arial,sans-serif;fill:#222}.title{font-size:22px;font-weight:bold}.axis{font-size:12px}.label{font-size:13px}.bar{fill:#f28e2b}</style><text x="40" y="35" class="title">Last Campaign Acceptance Rate by Age Group</text><line x1="80" y1="360" x2="740" y2="360" stroke="#333"/><line x1="80" y1="70" x2="80" y2="360" stroke="#333"/><g><rect class="bar" x="105" y="85" width="65" height="275"/><text x="137" y="376" text-anchor="middle" class="axis">21-30</text><text x="137" y="77" text-anchor="middle" class="label">50.0%</text><rect class="bar" x="210" y="269" width="65" height="91"/><text x="242" y="376" text-anchor="middle" class="axis">31-40</text><text x="242" y="261" text-anchor="middle" class="label">16.6%</text><rect class="bar" x="315" y="276" width="65" height="84"/><text x="347" y="376" text-anchor="middle" class="axis">41-50</text><text x="347" y="268" text-anchor="middle" class="label">15.2%</text><rect class="bar" x="420" y="275" width="65" height="85"/><text x="452" y="376" text-anchor="middle" class="axis">51-60</text><text x="452" y="267" text-anchor="middle" class="label">15.5%</text><rect class="bar" x="525" y="292" width="65" height="68"/><text x="557" y="376" text-anchor="middle" class="axis">61-70</text><text x="557" y="284" text-anchor="middle" class="label">12.4%</text><rect class="bar" x="630" y="273" width="65" height="87"/><text x="662" y="376" text-anchor="middle" class="axis">70+</text><text x="662" y="265" text-anchor="middle" class="label">15.9%</text></g><text x="410" y="405" text-anchor="middle" class="axis">Age Group</text><text x="25" y="215" transform="rotate(-90 25 215)" text-anchor="middle" class="axis">Acceptance Rate</text></svg>