<svg xmlns="http://www.w3.org/2000/svg" width="820" height="420" viewBox="0 0 820 420"><style>text{font-family:Arial,sans-serif;fill:#222}.title{font-size:22px;font-weight:bold}.axis{font-size:12px}.label{font-size:13px}.bar{fill:#4c78a8}</style><text x="40" y="35" class="title">Customers Accepting the Last Campaign by Country</text><line x1="70" y1="360" x2="780" y2="360" stroke="#333"/><line x1="70" y1="70" x2="70" y2="360" stroke="#333"/><g><rect class="bar" x="95" y="78" width="55" height="282"/><text x="122" y="376" text-anchor="middle" class="axis">SP</text><text x="122" y="70" text-anchor="middle" class="label">176</text><rect class="bar" x="180" y="277" width="55" height="83"/><text x="207" y="376" text-anchor="middle" class="axis">SA</text><text x="207" y="269" text-anchor="middle" class="label">52</text><rect class="bar" x="265" y="299" width="55" height="61"/><text x="292" y="376" text-anchor="middle" class="axis">CA</text><text x="292" y="291" text-anchor="middle" class="label">38</text><rect class="bar" x="350" y="323" width="55" height="37"/><text x="377" y="376" text-anchor="middle" class="axis">AUS</text><text x="377" y="315" text-anchor="middle" class="label">23</text><rect class="bar" x="435" y="333" width="55" height="27"/><text x="462" y="376" text-anchor="middle" class="axis">GER</text><text x="462" y="325" text-anchor="middle" class="label">17</text><rect class="bar" x="520" y="339" width="55" height="21"/><text x="547" y="376" text-anchor="middle" class="axis">IND</text><text x="547" y="331" text-anchor="middle" class="label">13</text><rect class="bar" x="605" y="339" width="55" height="21"/><text x="632" y="376" text-anchor="middle" class="axis">US</text><text x="632" y="331" text-anchor="middle" class="label">13</text><rect class="bar" x="690" y="357" width="55" height="3"/><text x="717" y="376" text-anchor="middle" class="axis">ME</text><text x="717" y="349" text-anchor="middle" class="label">2</text></g><text x="410" y="405" text-anchor="middle" class="axis">Country</text><text x="20" y="215" transform="rotate(-90 20 215)" text-anchor="middle" class="axis">Accepted Campaign Count</text></svg>