<svg xmlns="http://www.w3.org/2000/svg" width="860" height="470" viewBox="0 0 860 470"><style>text{font-family:Arial,sans-serif;fill:#222}.title{font-size:22px;font-weight:bold}.axis{font-size:12px}.celltext{font-size:15px;font-weight:bold}.pos1{fill:#4c78a8}.pos2{fill:#8ab6d6}.neg1{fill:#e15759}.neg2{fill:#f4a6a6}.neutral{fill:#ddd}</style><text x="40" y="35" class="title">Correlation Snapshot: Spending, Purchases, Channels, and Response</text><text x="230" y="82" class="axis">Total Children</text><text x="360" y="82" class="axis">Web Purchases</text><text x="500" y="82" class="axis">Catalog Purchases</text><text x="665" y="82" class="axis">Store Purchases</text><text x="785" y="82" class="axis">Response</text><text x="45" y="145" class="axis">Total Spending</text><rect class="neg1" x="235" y="105" width="95" height="70"/><text x="282" y="147" text-anchor="middle" class="celltext">-0.50</text><rect class="pos2" x="365" y="105" width="95" height="70"/><text x="412" y="147" text-anchor="middle" class="celltext">0.52</text><rect class="pos1" x="520" y="105" width="95" height="70"/><text x="567" y="147" text-anchor="middle" class="celltext">0.78</text><rect class="pos1" x="670" y="105" width="95" height="70"/><text x="717" y="147" text-anchor="middle" class="celltext">0.67</text><rect class="pos2" x="775" y="105" width="70" height="70"/><text x="810" y="147" text-anchor="middle" class="celltext">0.27</text><text x="45" y="245" class="axis">Total Purchases</text><rect class="neg2" x="235" y="205" width="95" height="70"/><text x="282" y="247" text-anchor="middle" class="celltext">-0.38</text><rect class="pos1" x="365" y="205" width="95" height="70"/><text x="412" y="247" text-anchor="middle" class="celltext">0.77</text><rect class="pos1" x="520" y="205" width="95" height="70"/><text x="567" y="247" text-anchor="middle" class="celltext">0.79</text><rect class="pos1" x="670" y="205" width="95" height="70"/><text x="717" y="247" text-anchor="middle" class="celltext">0.86</text><rect class="pos2" x="775" y="205" width="70" height="70"/><text x="810" y="247" text-anchor="middle" class="celltext">0.16</text><text x="45" y="345" class="axis">Interpretation</text><text x="230" y="335" class="axis">Children are negatively associated with spending and purchases.</text><text x="230" y="360" class="axis">Store, catalog, and web channels all move with total purchases.</text><text x="230" y="385" class="axis">Response has a positive but weaker relationship with spending.</text></svg>